<?xml version="1.0" encoding="UTF-8" standalone="no"?>
<!DOCTYPE svg PUBLIC "-//W3C//DTD SVG 1.1//EN"
 "http://www.w3.org/Graphics/SVG/1.1/DTD/svg11.dtd">
<!-- Generated by graphviz version 2.40.1 (20161225.0304)
 -->
<!-- Title: E4 Pages: 1 -->
<svg width="999pt" height="553pt"
 viewBox="0.00 0.00 998.70 553.20" xmlns="http://www.w3.org/2000/svg" xmlns:xlink="http://www.w3.org/1999/xlink">
<g id="graph0" class="graph" transform="scale(1 1) rotate(0) translate(4 549.2)">
<title>E4</title>
<polygon fill="#ffffff" stroke="transparent" points="-4,4 -4,-549.2 994.7013,-549.2 994.7013,4 -4,4"/>
<!-- Host 1 -->
<g id="node1" class="node">
<title>Host 1</title>
<ellipse fill="none" stroke="#000000" cx="170.3536" cy="-527.2" rx="33.3924" ry="18"/>
<text text-anchor="middle" x="170.3536" y="-523" font-family="Times,serif" font-size="14.00" fill="#000000">Host 1</text>
</g>
<!-- ER 1 -->
<g id="node2" class="node">
<title>ER 1</title>
<ellipse fill="none" stroke="#000000" cx="170.3536" cy="-445.2" rx="28.0798" ry="18"/>
<text text-anchor="middle" x="170.3536" y="-441" font-family="Times,serif" font-size="14.00" fill="#000000">ER 1</text>
</g>
<!-- Host 1&#45;&gt;ER 1 -->
<g id="edge1" class="edge">
<title>Host 1&#45;&gt;ER 1</title>
<path fill="none" stroke="#000000" d="M170.3536,-509.0015C170.3536,-498.5976 170.3536,-485.3215 170.3536,-473.5768"/>
<polygon fill="#000000" stroke="#000000" points="173.8537,-473.3476 170.3536,-463.3476 166.8537,-473.3476 173.8537,-473.3476"/>
<text text-anchor="middle" x="208.5372" y="-483.2" font-family="Times,serif" font-size="10.00" fill="#0000ff">[Host 1] before ER</text>
</g>
<!-- fork1 -->
<g id="node7" class="node">
<title>fork1</title>
<ellipse fill="#000000" stroke="#000000" cx="170.3536" cy="-379.4" rx="1.8" ry="1.8"/>
</g>
<!-- ER 1&#45;&gt;fork1 -->
<g id="edge4" class="edge">
<title>ER 1&#45;&gt;fork1</title>
<path fill="none" stroke="#000000" d="M170.3536,-426.871C170.3536,-415.5771 170.3536,-401.4123 170.3536,-391.5077"/>
<polygon fill="#000000" stroke="#000000" points="173.8537,-391.3115 170.3536,-381.3115 166.8537,-391.3116 173.8537,-391.3115"/>
<text text-anchor="middle" x="204.9264" y="-401.2" font-family="Times,serif" font-size="10.00" fill="#0000ff">[Host 1] after ER</text>
</g>
<!-- Host 2 -->
<g id="node3" class="node">
<title>Host 2</title>
<ellipse fill="none" stroke="#000000" cx="485.3536" cy="-527.2" rx="33.3924" ry="18"/>
<text text-anchor="middle" x="485.3536" y="-523" font-family="Times,serif" font-size="14.00" fill="#000000">Host 2</text>
</g>
<!-- ER 2 -->
<g id="node4" class="node">
<title>ER 2</title>
<ellipse fill="none" stroke="#000000" cx="485.3536" cy="-445.2" rx="28.0798" ry="18"/>
<text text-anchor="middle" x="485.3536" y="-441" font-family="Times,serif" font-size="14.00" fill="#000000">ER 2</text>
</g>
<!-- Host 2&#45;&gt;ER 2 -->
<g id="edge2" class="edge">
<title>Host 2&#45;&gt;ER 2</title>
<path fill="none" stroke="#000000" d="M485.3536,-509.0015C485.3536,-498.5976 485.3536,-485.3215 485.3536,-473.5768"/>
<polygon fill="#000000" stroke="#000000" points="488.8537,-473.3476 485.3536,-463.3476 481.8537,-473.3476 488.8537,-473.3476"/>
<text text-anchor="middle" x="523.5372" y="-483.2" font-family="Times,serif" font-size="10.00" fill="#0000ff">[Host 2] before ER</text>
</g>
<!-- fork2 -->
<g id="node8" class="node">
<title>fork2</title>
<ellipse fill="#000000" stroke="#000000" cx="485.3536" cy="-379.4" rx="1.8" ry="1.8"/>
</g>
<!-- ER 2&#45;&gt;fork2 -->
<g id="edge5" class="edge">
<title>ER 2&#45;&gt;fork2</title>
<path fill="none" stroke="#000000" d="M485.3536,-426.871C485.3536,-415.5771 485.3536,-401.4123 485.3536,-391.5077"/>
<polygon fill="#000000" stroke="#000000" points="488.8537,-391.3115 485.3536,-381.3115 481.8537,-391.3116 488.8537,-391.3115"/>
<text text-anchor="middle" x="519.9264" y="-401.2" font-family="Times,serif" font-size="10.00" fill="#0000ff">[Host 2] after ER</text>
</g>
<!-- Host 3 -->
<g id="node5" class="node">
<title>Host 3</title>
<ellipse fill="none" stroke="#000000" cx="780.3536" cy="-527.2" rx="33.3924" ry="18"/>
<text text-anchor="middle" x="780.3536" y="-523" font-family="Times,serif" font-size="14.00" fill="#000000">Host 3</text>
</g>
<!-- ER 3 -->
<g id="node6" class="node">
<title>ER 3</title>
<ellipse fill="none" stroke="#000000" cx="780.3536" cy="-445.2" rx="28.0798" ry="18"/>
<text text-anchor="middle" x="780.3536" y="-441" font-family="Times,serif" font-size="14.00" fill="#000000">ER 3</text>
</g>
<!-- Host 3&#45;&gt;ER 3 -->
<g id="edge3" class="edge">
<title>Host 3&#45;&gt;ER 3</title>
<path fill="none" stroke="#000000" d="M780.3536,-509.0015C780.3536,-498.5976 780.3536,-485.3215 780.3536,-473.5768"/>
<polygon fill="#000000" stroke="#000000" points="783.8537,-473.3476 780.3536,-463.3476 776.8537,-473.3476 783.8537,-473.3476"/>
<text text-anchor="middle" x="818.5372" y="-483.2" font-family="Times,serif" font-size="10.00" fill="#0000ff">[Host 3] before ER</text>
</g>
<!-- fork3 -->
<g id="node9" class="node">
<title>fork3</title>
<ellipse fill="#000000" stroke="#000000" cx="780.3536" cy="-379.4" rx="1.8" ry="1.8"/>
</g>
<!-- ER 3&#45;&gt;fork3 -->
<g id="edge6" class="edge">
<title>ER 3&#45;&gt;fork3</title>
<path fill="none" stroke="#000000" d="M780.3536,-426.871C780.3536,-415.5771 780.3536,-401.4123 780.3536,-391.5077"/>
<polygon fill="#000000" stroke="#000000" points="783.8537,-391.3115 780.3536,-381.3115 776.8537,-391.3116 783.8537,-391.3115"/>
<text text-anchor="middle" x="814.9264" y="-401.2" font-family="Times,serif" font-size="10.00" fill="#0000ff">[Host 3] after ER</text>
</g>
<!-- PPM accumulator 1 -->
<g id="node10" class="node">
<title>PPM accumulator 1</title>
<ellipse fill="none" stroke="#000000" cx="80.3536" cy="-313.6" rx="80.2076" ry="18"/>
<text text-anchor="middle" x="80.3536" y="-309.4" font-family="Times,serif" font-size="14.00" fill="#000000">PPM accumulator 1</text>
</g>
<!-- fork1&#45;&gt;PPM accumulator 1 -->
<g id="edge7" class="edge">
<title>fork1&#45;&gt;PPM accumulator 1</title>
<path fill="none" stroke="#000000" d="M168.4519,-379.2874C156.5684,-378.541 92.6441,-373.8908 81.006,-359.6 77.0642,-354.7597 75.4684,-348.5874 75.1536,-342.3475"/>
<polygon fill="#000000" stroke="#000000" points="78.6664,-342.1606 75.6452,-332.0057 71.6743,-341.8282 78.6664,-342.1606"/>
<text text-anchor="middle" x="159.5275" y="-351.6" font-family="Times,serif" font-size="10.00" fill="#0000ff">[Host 1] before PPM state accumulator</text>
</g>
<!-- ADM merge -->
<g id="node16" class="node">
<title>ADM merge</title>
<ellipse fill="none" stroke="#000000" cx="575.3536" cy="-313.6" rx="54.7885" ry="18"/>
<text text-anchor="middle" x="575.3536" y="-309.4" font-family="Times,serif" font-size="14.00" fill="#000000">ADM merge</text>
</g>
<!-- fork1&#45;&gt;ADM merge -->
<g id="edge13" class="edge">
<title>fork1&#45;&gt;ADM merge</title>
<path fill="none" stroke="#000000" d="M172.2923,-378.8217C185.6496,-374.8405 263.8304,-351.5915 274.6671,-349.6 367.0988,-332.6134 392.3109,-344.8363 485.3536,-331.6 496.579,-330.0031 508.5173,-327.9033 519.905,-325.7035"/>
<polygon fill="#000000" stroke="#000000" points="520.6101,-329.1319 529.7389,-323.7547 519.2493,-322.2654 520.6101,-329.1319"/>
<text text-anchor="middle" x="332.1969" y="-351.6" font-family="Times,serif" font-size="10.00" fill="#0000ff">[Host 1] before ADM merge</text>
</g>
<!-- PPM accumulator 2 -->
<g id="node11" class="node">
<title>PPM accumulator 2</title>
<ellipse fill="none" stroke="#000000" cx="396.3536" cy="-313.6" rx="80.2076" ry="18"/>
<text text-anchor="middle" x="396.3536" y="-309.4" font-family="Times,serif" font-size="14.00" fill="#000000">PPM accumulator 2</text>
</g>
<!-- fork2&#45;&gt;PPM accumulator 2 -->
<g id="edge8" class="edge">
<title>fork2&#45;&gt;PPM accumulator 2</title>
<path fill="none" stroke="#000000" d="M483.4729,-379.2837C471.7207,-378.515 408.5031,-373.7521 397.006,-359.6 393.07,-354.755 391.4765,-348.5809 391.162,-342.3407"/>
<polygon fill="#000000" stroke="#000000" points="394.6747,-342.1543 391.6526,-331.9996 387.6826,-341.8225 394.6747,-342.1543"/>
<text text-anchor="middle" x="475.5275" y="-351.6" font-family="Times,serif" font-size="10.00" fill="#0000ff">[Host 2] before PPM state accumulator</text>
</g>
<!-- fork2&#45;&gt;ADM merge -->
<g id="edge14" class="edge">
<title>fork2&#45;&gt;ADM merge</title>
<path fill="none" stroke="#000000" d="M487.2327,-379.0668C497.0779,-377.2904 542.669,-368.6731 553.3536,-359.6 559.1989,-354.6363 563.6074,-347.7649 566.8821,-340.845"/>
<polygon fill="#000000" stroke="#000000" points="570.1359,-342.1348 570.6733,-331.5536 563.6547,-339.4901 570.1359,-342.1348"/>
<text text-anchor="middle" x="619.1969" y="-351.6" font-family="Times,serif" font-size="10.00" fill="#0000ff">[Host 2] before ADM merge</text>
</g>
<!-- PPM accumulator 3 -->
<g id="node12" class="node">
<title>PPM accumulator 3</title>
<ellipse fill="none" stroke="#000000" cx="849.3536" cy="-313.6" rx="80.2076" ry="18"/>
<text text-anchor="middle" x="849.3536" y="-309.4" font-family="Times,serif" font-size="14.00" fill="#000000">PPM accumulator 3</text>
</g>
<!-- fork3&#45;&gt;PPM accumulator 3 -->
<g id="edge9" class="edge">
<title>fork3&#45;&gt;PPM accumulator 3</title>
<path fill="none" stroke="#000000" d="M782.4238,-379.0676C789.5686,-377.8207 813.5135,-372.7993 827.3536,-359.6 832.6908,-354.51 836.8842,-347.861 840.1129,-341.2069"/>
<polygon fill="#000000" stroke="#000000" points="843.4902,-342.208 844.1741,-331.6352 837.0462,-339.4738 843.4902,-342.208"/>
<text text-anchor="middle" x="912.5275" y="-351.6" font-family="Times,serif" font-size="10.00" fill="#0000ff">[Host 3] before PPM state accumulator</text>
</g>
<!-- fork3&#45;&gt;ADM merge -->
<g id="edge15" class="edge">
<title>fork3&#45;&gt;ADM merge</title>
<path fill="none" stroke="#000000" d="M778.5941,-378.9466C770.6013,-376.8789 736.9264,-368.0782 709.6671,-359.6 708.545,-359.251 661.0536,-342.9793 622.8617,-329.888"/>
<polygon fill="#000000" stroke="#000000" points="623.9808,-326.5717 613.3861,-326.6398 621.7108,-333.1934 623.9808,-326.5717"/>
<text text-anchor="middle" x="767.1969" y="-351.6" font-family="Times,serif" font-size="10.00" fill="#0000ff">[Host 3] before ADM merge</text>
</g>
<!-- PPM sink 1 -->
<g id="node13" class="node">
<title>PPM sink 1</title>
<ellipse fill="none" stroke="#000000" cx="80.3536" cy="-231.6" rx="51.2845" ry="18"/>
<text text-anchor="middle" x="80.3536" y="-227.4" font-family="Times,serif" font-size="14.00" fill="#000000">PPM sink 1</text>
</g>
<!-- PPM accumulator 1&#45;&gt;PPM sink 1 -->
<g id="edge10" class="edge">
<title>PPM accumulator 1&#45;&gt;PPM sink 1</title>
<path fill="none" stroke="#000000" d="M80.3536,-295.4015C80.3536,-284.9976 80.3536,-271.7215 80.3536,-259.9768"/>
<polygon fill="#000000" stroke="#000000" points="83.8537,-259.7476 80.3536,-249.7476 76.8537,-259.7476 83.8537,-259.7476"/>
<text text-anchor="middle" x="131.7404" y="-269.6" font-family="Times,serif" font-size="10.00" fill="#0000ff">[Host 1] before PPM sink</text>
</g>
<!-- PPM sink 2 -->
<g id="node14" class="node">
<title>PPM sink 2</title>
<ellipse fill="none" stroke="#000000" cx="396.3536" cy="-231.6" rx="51.2845" ry="18"/>
<text text-anchor="middle" x="396.3536" y="-227.4" font-family="Times,serif" font-size="14.00" fill="#000000">PPM sink 2</text>
</g>
<!-- PPM accumulator 2&#45;&gt;PPM sink 2 -->
<g id="edge11" class="edge">
<title>PPM accumulator 2&#45;&gt;PPM sink 2</title>
<path fill="none" stroke="#000000" d="M396.3536,-295.4015C396.3536,-284.9976 396.3536,-271.7215 396.3536,-259.9768"/>
<polygon fill="#000000" stroke="#000000" points="399.8537,-259.7476 396.3536,-249.7476 392.8537,-259.7476 399.8537,-259.7476"/>
<text text-anchor="middle" x="447.7404" y="-269.6" font-family="Times,serif" font-size="10.00" fill="#0000ff">[Host 2] before PPM sink</text>
</g>
<!-- PPM sink 3 -->
<g id="node15" class="node">
<title>PPM sink 3</title>
<ellipse fill="none" stroke="#000000" cx="849.3536" cy="-231.6" rx="51.2845" ry="18"/>
<text text-anchor="middle" x="849.3536" y="-227.4" font-family="Times,serif" font-size="14.00" fill="#000000">PPM sink 3</text>
</g>
<!-- PPM accumulator 3&#45;&gt;PPM sink 3 -->
<g id="edge12" class="edge">
<title>PPM accumulator 3&#45;&gt;PPM sink 3</title>
<path fill="none" stroke="#000000" d="M849.3536,-295.4015C849.3536,-284.9976 849.3536,-271.7215 849.3536,-259.9768"/>
<polygon fill="#000000" stroke="#000000" points="852.8537,-259.7476 849.3536,-249.7476 845.8537,-259.7476 852.8537,-259.7476"/>
<text text-anchor="middle" x="900.7404" y="-269.6" font-family="Times,serif" font-size="10.00" fill="#0000ff">[Host 3] before PPM sink</text>
</g>
<!-- Deduplicate -->
<g id="node18" class="node">
<title>Deduplicate</title>
<ellipse fill="none" stroke="#000000" cx="575.3536" cy="-231.6" rx="52.6607" ry="18"/>
<text text-anchor="middle" x="575.3536" y="-227.4" font-family="Times,serif" font-size="14.00" fill="#000000">Deduplicate</text>
</g>
<!-- ADM merge&#45;&gt;Deduplicate -->
<g id="edge16" class="edge">
<title>ADM merge&#45;&gt;Deduplicate</title>
<path fill="none" stroke="#000000" d="M575.3536,-295.4015C575.3536,-284.9976 575.3536,-271.7215 575.3536,-259.9768"/>
<polygon fill="#000000" stroke="#000000" points="578.8537,-259.7476 575.3536,-249.7476 571.8537,-259.7476 578.8537,-259.7476"/>
<text text-anchor="middle" x="610.8102" y="-269.6" font-family="Times,serif" font-size="10.00" fill="#0000ff">after ADM merge</text>
</g>
<!-- fork4 -->
<g id="node17" class="node">
<title>fork4</title>
<ellipse fill="#000000" stroke="#000000" cx="575.3536" cy="-165.8" rx="1.8" ry="1.8"/>
</g>
<!-- PPM accumulator -->
<g id="node19" class="node">
<title>PPM accumulator</title>
<ellipse fill="none" stroke="#000000" cx="482.3536" cy="-100" rx="73.9428" ry="18"/>
<text text-anchor="middle" x="482.3536" y="-95.8" font-family="Times,serif" font-size="14.00" fill="#000000">PPM accumulator</text>
</g>
<!-- fork4&#45;&gt;PPM accumulator -->
<g id="edge18" class="edge">
<title>fork4&#45;&gt;PPM accumulator</title>
<path fill="none" stroke="#000000" d="M573.4015,-165.6948C561.2026,-164.9938 495.5762,-160.5723 483.506,-146 479.3592,-140.9936 477.7323,-134.5221 477.4422,-128.0227"/>
<polygon fill="#000000" stroke="#000000" points="480.9402,-128.1473 477.9168,-117.993 473.948,-127.8164 480.9402,-128.1473"/>
<text text-anchor="middle" x="566.2775" y="-138" font-family="Times,serif" font-size="10.00" fill="#0000ff">before cross&#45;host PPM state accumulator</text>
</g>
<!-- Neo4j -->
<g id="node21" class="node">
<title>Neo4j</title>
<ellipse fill="none" stroke="#000000" cx="669.3536" cy="-100" rx="31.9393" ry="18"/>
<text text-anchor="middle" x="669.3536" y="-95.8" font-family="Times,serif" font-size="14.00" fill="#000000">Neo4j</text>
</g>
<!-- fork4&#45;&gt;Neo4j -->
<g id="edge20" class="edge">
<title>fork4&#45;&gt;Neo4j</title>
<path fill="none" stroke="#000000" d="M577.3424,-165.4815C587.7624,-163.7797 636.0171,-155.4816 647.3536,-146 653.2359,-141.0802 657.6563,-134.223 660.9307,-127.3027"/>
<polygon fill="#000000" stroke="#000000" points="664.1876,-128.5847 664.715,-118.003 657.7039,-125.9462 664.1876,-128.5847"/>
<text text-anchor="middle" x="686.903" y="-138" font-family="Times,serif" font-size="10.00" fill="#0000ff">before DB sink</text>
</g>
<!-- Deduplicate&#45;&gt;fork4 -->
<g id="edge17" class="edge">
<title>Deduplicate&#45;&gt;fork4</title>
<path fill="none" stroke="#000000" d="M575.3536,-213.271C575.3536,-201.9771 575.3536,-187.8123 575.3536,-177.9077"/>
<polygon fill="#000000" stroke="#000000" points="578.8537,-177.7115 575.3536,-167.7115 571.8537,-177.7116 578.8537,-177.7115"/>
<text text-anchor="middle" x="630.3317" y="-187.6" font-family="Times,serif" font-size="10.00" fill="#0000ff">after cross&#45;host deduplicate</text>
</g>
<!-- PPM sink -->
<g id="node20" class="node">
<title>PPM sink</title>
<ellipse fill="none" stroke="#000000" cx="482.3536" cy="-18" rx="44.5204" ry="18"/>
<text text-anchor="middle" x="482.3536" y="-13.8" font-family="Times,serif" font-size="14.00" fill="#000000">PPM sink</text>
</g>
<!-- PPM accumulator&#45;&gt;PPM sink -->
<g id="edge19" class="edge">
<title>PPM accumulator&#45;&gt;PPM sink</title>
<path fill="none" stroke="#000000" d="M482.3536,-81.8015C482.3536,-71.3976 482.3536,-58.1215 482.3536,-46.3768"/>
<polygon fill="#000000" stroke="#000000" points="485.8537,-46.1476 482.3536,-36.1476 478.8537,-46.1476 485.8537,-46.1476"/>
<text text-anchor="middle" x="537.4904" y="-56" font-family="Times,serif" font-size="10.00" fill="#0000ff">before cross&#45;host PPM sink</text>
</g>
</g>
</svg>
